<svg id="Layer_1" data-name="Layer 1" xmlns="http://www.w3.org/2000/svg" viewBox="0 0 306 313">
  <defs>
    <style>
      .cls-1 {
      fill: #fff; /* Set fill color to white */
      }

      .cls-1, .cls-2 {
      stroke-width: 0px;
      }

      .cls-2 {
      fill: transparent; /* Set fill color to transparent */
      }

      .cls-3 {
      fill: #000; /* Set fill color to black for the outer circle */
      }
    </style>
  </defs>

  <!-- Transparent circle -->
  <circle class="cls-3" cx="153" cy="156.5" r="144" />

  <!-- Main object with white background -->
  <path class="cls-2" d="M306,313H0V0h306v313ZM111.33,244.44c11.85-10.75,22.55-19.79,32.42-29.66,5.7-5.7,9.56-5.39,15.74-.52,10.66,8.41,22.61,15.16,33.37,23.45,7.96,6.13,13.46,4.26,20.01-2.11,13.89-13.51,29.04-25.77,42.44-39.73,18.6-19.37,37.05-39.02,37.91-68.68.96-33.06-28.72-61.17-60.24-55.74-4.51.78-8.66,3.63-12.98,5.53.45,1.45.91,2.91,1.36,4.36,3.94-.22,7.91-.21,11.82-.7,29.77-3.71,55.35,21,50.1,50.57-2.21,12.48-7.38,26.12-15.51,35.51-18.73,21.63-39.99,41.08-60.54,61.09-1.92,1.87-7.05,3.07-9,1.85-13.06-8.15-25.66-17.04-39.4-26.37,5.21-5.7,8.82-9.68,12.45-13.63,16.81-18.26,31.02-37.47,33.3-63.77,2.24-25.84-13.11-47.93-39.63-53.63-27.37-5.88-51.37,7.45-58.96,32.55-5.27,17.42-2.26,34.45,5.28,49.91,8.24,16.9,19.25,32.45,29.91,49.99-8.8,8.1-18.98,17.46-30.33,27.91-17.87-17.64-34.92-34.06-51.45-50.98-8.31-8.51-17.14-17.09-23.14-27.17-9.85-16.56-11.77-35-1.56-52.21,9.8-16.5,26.04-22.09,44.74-22.04,3.01,0,6.02-2.67,11.24-5.16-29.65-11.22-76.52,10.05-70.62,55.86,1.62,12.58,6.49,26.13,13.92,36.25,11.59,15.78,26.33,29.33,40.33,43.23,11.55,11.47,23.94,22.08,37.01,34.04Z"/>

  <!-- Transparent circle -->
  <path class="cls-1" d="M111.33,244.44c-13.07-11.95-25.47-22.57-37.01-34.04-14-13.9-28.74-27.45-40.33-43.23-7.44-10.12-12.3-23.67-13.92-36.25-5.9-45.8,40.96-67.08,70.62-55.86-5.23,2.49-8.24,5.17-11.24,5.16-18.7-.04-34.94,5.54-44.74,22.04-10.21,17.21-8.3,35.65,1.56,52.21,6,10.09,14.82,18.66,23.14,27.17,16.53,16.93,33.59,33.34,51.45,50.98,11.36-10.45,21.53-19.81,30.33-27.91-10.66-17.55-21.67-33.1-29.91-49.99-7.54-15.46-10.54-32.48-5.28-49.91,7.59-25.1,31.58-38.43,58.96-32.55,26.52,5.7,41.87,27.79,39.63,53.63-2.28,26.3-16.49,45.5-33.3,63.77-3.64,3.95-7.24,7.93-12.45,13.63,13.74,9.32,26.34,18.21,39.4,26.37,1.94,1.21,7.08.02,9-1.85,20.55-20.01,41.81-39.46,60.54-61.09,8.13-9.39,13.3-23.04,15.51-35.51,5.24-29.57-20.33-54.28-50.1-50.57-3.91.49-7.88.48-11.82.7-.45-1.45-.91-2.91-1.36-4.36,4.32-1.89,8.47-4.75,12.98-5.53,31.53-5.43,61.2,22.68,60.24,55.74-.86,29.66-19.31,49.31-37.91,68.68-13.4,13.96-28.55,26.22-42.44,39.73-6.55,6.37-12.05,8.24-20.01,2.11-10.76-8.29-22.71-15.04-33.37-23.45-6.18-4.87-10.04-5.19-15.74.52-9.87,9.87-20.57,18.91-32.42,29.66ZM194.96,125.23c1.12-27.36-17.14-45.46-42.58-45.76-22.42-.27-39.78,17.92-39.28,41.7.58,27.66,13.9,49.77,31.96,69.36,1.91,2.07,8.98,2.85,10.59,1.21,19.36-19.7,40.27-38.77,39.31-66.51Z"/>
</svg>
